<svg width="32" height="32" viewBox="0 0 32 32" fill="none" xmlns="http://www.w3.org/2000/svg">
<path d="M0 16C0 24.8366 7.16344 32 16 32V0C7.16344 0 0 7.16344 0 16Z" fill="#01969E"/>
<path d="M32 16C32 24.8366 24.8366 32 16 32V0C24.8366 0 32 7.16344 32 16Z" fill="#02AAB0"/>
<path d="M19.0397 9.77644C19.0397 11.588 20.5083 13.0566 22.3198 13.0566H22.7645C24.3305 13.0566 25.6 14.3261 25.6 15.8921C25.6 17.4581 24.3305 18.7275 22.7645 18.7275H22.3198C20.5083 18.7275 19.0397 20.1961 19.0397 22.0077V23.3699C19.0397 25.0434 17.6831 26.4 16.0096 26.4C14.3362 26.4 12.9796 25.0434 12.9796 23.3699V22.0173C12.9796 20.2004 11.5067 18.7275 9.68978 18.7275H9.23547C7.66948 18.7275 6.4 17.4581 6.4 15.8921C6.4 14.3261 7.66948 13.0566 9.23547 13.0566H9.68978C11.5067 13.0566 12.9796 11.5837 12.9796 9.76682V8.63006C12.9796 6.9566 14.3362 5.6 16.0096 5.6C17.6831 5.6 19.0397 6.9566 19.0397 8.63006V9.77644Z" fill="#85FFC7"/>
</svg>
